<svg width="1100" height="250" viewBox="0 0 1100 250" fill="none" xmlns="http://www.w3.org/2000/svg">
<g clip-path="url(#clip0_13_2)">
<rect width="1100" height="250" fill="url(#paint0_radial_13_2)"/>
<path fill-rule="evenodd" clip-rule="evenodd" d="M1032.31 -8.94317C1033.41 -10.3181 1033.29 -12.5973 1032.06 -13.857C1029.76 -16.2065 1028.34 -19.4232 1028.34 -22.9712C1028.34 -30.1668 1034.17 -36 1041.37 -36C1048.56 -36 1054.39 -30.1668 1054.39 -22.9712V-22.9712C1054.39 -21.8254 1055.49 -20.8407 1056.63 -20.9597C1057.08 -21.0067 1057.54 -21.0307 1058 -21.0307V-21.0307C1060.23 -21.0307 1062.48 -22.1208 1063.87 -23.8679C1066.26 -26.8688 1069.94 -28.7926 1074.08 -28.7926C1081.09 -28.7926 1086.8 -23.257 1087.09 -16.3188C1087.1 -16.1643 1087.23 -16.041 1087.38 -16.041V-16.041C1094.58 -16.041 1100.41 -10.2078 1100.41 -3.01216C1100.41 2.70356 1096.73 7.55964 1091.61 9.31534C1090.27 9.77437 1089.32 11.0963 1089.32 12.5115V12.5115C1089.32 19.7071 1083.49 25.5403 1076.29 25.5403C1076.22 25.5403 1076.15 25.5398 1076.08 25.5387C1071.45 25.4652 1065.81 26.2969 1061.4 27.7019C1060.15 28.0984 1058.82 28.3124 1057.44 28.3124C1053.26 28.3124 1049.53 26.3364 1047.15 23.2658C1046.54 22.4877 1045.51 22.1339 1044.56 22.3744C1044.08 22.4947 1043.59 22.5887 1043.09 22.6546C1042.9 22.6805 1042.75 22.8481 1042.75 23.0455V23.0455C1042.75 30.2411 1036.92 36.0743 1029.72 36.0743C1022.53 36.0743 1016.69 30.2411 1016.69 23.0455V23.0455C1016.69 22.3227 1015.92 21.7769 1015.24 22.019C1013.87 22.5041 1012.4 22.7682 1010.87 22.7682C1007.48 22.7682 1004.39 21.4708 1002.07 19.3448C999.313 16.8171 994.654 15.0064 990.914 15.0064V15.0064C983.718 15.0064 977.885 9.17321 977.885 1.97759C977.885 -2.47322 980.117 -6.40277 983.522 -8.75303C986.653 -10.9137 989.665 -13.9259 991.826 -17.0567C994.176 -20.4622 998.106 -22.694 1002.56 -22.694C1009.75 -22.694 1015.59 -16.8608 1015.59 -9.66517V-9.66517C1015.59 -9.28145 1015.98 -9.0069 1016.34 -9.1398C1017.75 -9.65889 1019.27 -9.94238 1020.85 -9.94238C1023.31 -9.94238 1025.6 -9.26454 1027.56 -8.08596C1029.04 -7.19473 1031.23 -7.5948 1032.31 -8.94317V-8.94317Z" fill="#EFF2F6"/>
<path fill-rule="evenodd" clip-rule="evenodd" d="M916 30.0288C916 35.2001 919.013 39.6677 923.379 41.7721C924.693 42.4055 925.348 44.1373 924.781 45.4814C924.125 47.0373 923.762 48.7474 923.762 50.5423C923.762 57.7379 929.595 63.5711 936.791 63.5711C938.292 63.5711 939.734 63.3172 941.076 62.8501C942.563 62.3323 944.466 63.2587 944.976 64.7488C946.732 69.8696 951.588 73.5506 957.304 73.5506C963.026 73.5506 967.886 69.8628 969.637 64.7346C970.016 63.6233 971.148 62.8793 972.319 62.9739C972.67 63.0022 973.024 63.0166 973.382 63.0166C980.578 63.0166 986.411 57.1834 986.411 49.9878C986.411 43.5363 981.722 38.18 975.566 37.1412C974.508 36.9628 973.656 36.1101 973.477 35.0526C972.439 28.8966 967.082 24.2074 960.631 24.2074C956.043 24.2074 952.01 26.5782 949.688 30.1614C949.02 31.193 947.65 31.6349 946.505 31.189C945.203 30.6824 943.8 30.3789 942.335 30.3176C942.18 30.3111 942.058 30.1835 942.058 30.0288V30.0288C942.058 22.8332 936.225 17 929.029 17C921.833 17 916 22.8332 916 30.0288Z" fill="#EFF2F6"/>
<path fill-rule="evenodd" clip-rule="evenodd" d="M114.456 83.7745C112.313 83.2649 109.973 84.1175 108.665 85.8887C105.722 89.8706 101.303 92.771 96.0408 93.6883C90.4899 94.6558 85.0753 93.2295 80.8552 90.1535C78.8135 88.6652 75.8169 88.6993 73.8077 90.2312C71.3446 92.1093 68.4063 93.4401 65.1439 94.0087C61.626 94.6219 58.1629 94.2736 55.0238 93.1533C53.2591 92.5234 51.2472 92.8741 49.7996 94.0639C47.2247 96.1802 44.0836 97.6796 40.5657 98.2928C35.1004 99.2454 29.7673 97.8775 25.5763 94.8992C23.8574 93.6776 21.503 93.5566 19.6653 94.5907C17.7404 95.6739 15.6016 96.4536 13.3018 96.8544C2.44242 98.7472 -7.89525 91.4784 -9.78807 80.6191C-11.6809 69.7598 -4.41206 59.4221 6.44727 57.5293C7.65867 57.3181 8.86359 57.221 10.051 57.2301C11.5925 57.242 12.8854 55.7207 12.6207 54.2021V54.2021C10.7278 43.3428 17.9967 33.0051 28.856 31.1123C39.7153 29.2195 50.053 36.4883 51.9458 47.3476C52.0903 48.1768 52.1814 49.0029 52.2216 49.8224C52.3466 52.371 55.7757 55.1217 58.2895 54.6836V54.6836C60.2023 54.3502 62.099 54.301 63.9362 54.5057C64.478 54.5661 64.9373 54.0782 64.8437 53.5412V53.5412C62.9508 42.6818 70.2196 32.3442 81.079 30.4513C83.9059 29.9586 86.6975 30.0867 89.314 30.7374C92.0052 31.4067 95.1413 29.9716 96.3933 27.4972C99.1406 22.0674 104.327 17.9574 110.783 16.8321C121.643 14.9393 131.98 22.2081 133.873 33.0675C134.276 35.3784 134.264 37.6658 133.891 39.8531C133.752 40.6628 134.492 41.4013 135.301 41.2602V41.2602C146.161 39.3674 156.498 46.6362 158.391 57.4955C160.284 68.3549 153.015 78.6925 142.156 80.5854C139.386 81.0682 136.65 80.9549 134.079 80.338C132.687 80.004 131.206 80.2622 130.009 81.0475C127.799 82.4976 125.263 83.5298 122.493 84.0126C119.737 84.493 117.015 84.3833 114.456 83.7745Z" fill="#EFF2F6"/>
<path fill-rule="evenodd" clip-rule="evenodd" d="M301.318 98.6312C301.311 98.4767 301.183 98.3534 301.029 98.3534V98.3534C293.833 98.3534 288 92.5202 288 85.3246C288 79.6088 291.681 74.7528 296.801 72.9971C298.14 72.538 299.088 71.2161 299.088 69.8009V69.8009C299.088 62.6053 304.922 56.7721 312.117 56.7721C312.188 56.7721 312.258 56.7726 312.328 56.7737C316.963 56.8473 322.597 56.0155 327.014 54.6106C328.261 54.214 329.589 54 330.967 54C335.385 54 339.29 56.1991 341.646 59.5624C344.107 63.0759 347.672 66.6406 351.185 69.1018C354.549 71.4578 356.748 75.3623 356.748 79.7804C356.748 86.976 350.915 92.8092 343.719 92.8092V92.8092C343.423 92.8092 343.165 93.0142 343.098 93.3021C341.747 99.0577 336.58 103.343 330.413 103.343V103.343C328.181 103.343 325.927 104.433 324.537 106.18C322.15 109.181 318.467 111.105 314.335 111.105C307.325 111.105 301.608 105.569 301.318 98.6312Z" fill="#EFF2F6"/>
<path d="M327.976 168.329C779.908 252.834 912.514 117.335 1118.74 168.329L1167 298H-0.612503L-41.5643 168.329C-59.44 150.359 16.8619 110.155 327.976 168.329Z" fill="#ABB359"/>
<path d="M1142 165.5C530 323 498.5 69.5 -44.5 156.5V291L1142 276V165.5Z" fill="#759B41"/>
<path d="M711.355 46.0628C712.773 42.9264 717.227 42.9264 718.645 46.0629L722.578 54.7634C723.618 57.0644 726.504 57.8377 728.556 56.365L736.312 50.7967C739.108 48.7895 742.965 51.0165 742.625 54.4416L741.681 63.943C741.431 66.456 743.544 68.5686 746.057 68.3189L755.558 67.3749C758.984 67.0346 761.211 70.8919 759.203 73.688L753.635 81.4444C752.162 83.4958 752.936 86.3818 755.237 87.422L763.937 91.3551C767.074 92.773 767.074 97.227 763.937 98.6449L755.237 102.578C752.936 103.618 752.162 106.504 753.635 108.556L759.203 116.312C761.211 119.108 758.984 122.965 755.558 122.625L746.057 121.681C743.544 121.431 741.431 123.544 741.681 126.057L742.625 135.558C742.965 138.984 739.108 141.211 736.312 139.203L728.556 133.635C726.504 132.162 723.618 132.936 722.578 135.237L718.645 143.937C717.227 147.074 712.773 147.074 711.355 143.937L707.422 135.237C706.382 132.936 703.496 132.162 701.444 133.635L693.688 139.203C690.892 141.211 687.035 138.984 687.375 135.558L688.319 126.057C688.569 123.544 686.456 121.431 683.943 121.681L674.442 122.625C671.016 122.965 668.789 119.108 670.797 116.312L676.365 108.556C677.838 106.504 677.064 103.618 674.763 102.578L666.063 98.6449C662.926 97.227 662.926 92.773 666.063 91.3551L674.763 87.422C677.064 86.3818 677.838 83.4958 676.365 81.4444L670.797 73.688C668.789 70.8919 671.016 67.0346 674.442 67.3749L683.943 68.3189C686.456 68.5686 688.569 66.456 688.319 63.943L687.375 54.4416C687.035 51.0165 690.892 48.7895 693.688 50.7968L701.444 56.365C703.496 57.8377 706.382 57.0644 707.422 54.7634L711.355 46.0628Z" fill="#EAA032"/>
<circle cx="715" cy="95" r="33" fill="#FFE23C"/>
<circle cx="695.5" cy="94.5" r="4.5" fill="#936648"/>
<circle cx="733.5" cy="94.5" r="4.5" fill="#936648"/>
<path d="M707 96.5C712 101 718.5 101 723 96.5" stroke="#936648" stroke-width="2" stroke-linecap="round"/>
<path fill-rule="evenodd" clip-rule="evenodd" d="M856.103 36.0568C855 34.6819 855.122 32.4027 856.356 31.143C858.656 28.7935 860.074 25.5768 860.074 22.0288C860.074 14.8332 854.241 9 847.045 9C839.85 9 834.017 14.8332 834.017 22.0288V22.0288C834.017 23.1746 832.921 24.1593 831.782 24.0403C831.332 23.9933 830.875 23.9693 830.413 23.9693V23.9693C828.181 23.9693 825.927 22.8792 824.537 21.1321C822.15 18.1312 818.467 16.2074 814.335 16.2074C807.325 16.2074 801.608 21.743 801.318 28.6812C801.311 28.8357 801.183 28.959 801.029 28.959V28.959C793.833 28.959 788 34.7922 788 41.9878C788 47.7036 791.681 52.5596 796.801 54.3153C798.14 54.7744 799.088 56.0963 799.088 57.5115V57.5115C799.088 64.7071 804.922 70.5403 812.117 70.5403C812.188 70.5403 812.258 70.5398 812.328 70.5387C816.963 70.4652 822.597 71.2969 827.014 72.7019C828.261 73.0984 829.589 73.3124 830.967 73.3124C835.155 73.3124 838.882 71.3364 841.265 68.2658C841.869 67.4877 842.898 67.1339 843.854 67.3744C844.331 67.4947 844.82 67.5887 845.317 67.6546C845.513 67.6805 845.659 67.8481 845.659 68.0455V68.0455C845.659 75.2411 851.493 81.0743 858.688 81.0743C865.884 81.0743 871.717 75.2411 871.717 68.0455V68.0455C871.717 67.3227 872.492 66.7769 873.173 67.019C874.538 67.5041 876.007 67.7682 877.538 67.7682C880.932 67.7682 884.023 66.4708 886.341 64.3448C889.098 61.8171 893.757 60.0064 897.497 60.0064V60.0064C904.693 60.0064 910.526 54.1732 910.526 46.9776C910.526 42.5268 908.294 38.5972 904.889 36.247C901.758 34.0863 898.746 31.0741 896.585 27.9433C894.235 24.5378 890.305 22.306 885.855 22.306C878.659 22.306 872.826 28.1392 872.826 35.3348V35.3348C872.826 35.7185 872.431 35.9931 872.071 35.8602C870.665 35.3411 869.145 35.0576 867.559 35.0576C865.106 35.0576 862.811 35.7355 860.852 36.914C859.371 37.8053 857.185 37.4052 856.103 36.0568V36.0568Z" fill="white"/>
<path fill-rule="evenodd" clip-rule="evenodd" d="M981.411 68.0288C981.411 73.2001 978.398 77.6677 974.032 79.7721C972.718 80.4055 972.063 82.1373 972.63 83.4814C973.286 85.0373 973.649 86.7474 973.649 88.5423C973.649 95.7379 967.816 101.571 960.62 101.571C959.119 101.571 957.678 101.317 956.336 100.85C954.848 100.332 952.946 101.259 952.435 102.749C950.679 107.87 945.823 111.551 940.107 111.551C934.386 111.551 929.526 107.863 927.774 102.735C927.395 101.623 926.263 100.879 925.092 100.974C924.742 101.002 924.387 101.017 924.029 101.017C916.833 101.017 911 95.1834 911 87.9878C911 81.5363 915.689 76.18 921.845 75.1412C922.903 74.9628 923.755 74.1101 923.934 73.0526C924.973 66.8966 930.329 62.2074 936.78 62.2074C941.368 62.2074 945.401 64.5782 947.723 68.1614C948.391 69.193 949.761 69.6349 950.906 69.189C952.208 68.6824 953.611 68.3789 955.076 68.3176C955.231 68.3111 955.353 68.1835 955.353 68.0288V68.0288C955.353 60.8332 961.187 55 968.382 55C975.578 55 981.411 60.8332 981.411 68.0288Z" fill="white"/>
<path fill-rule="evenodd" clip-rule="evenodd" d="M1079.1 101.494C1078 102.869 1078.12 105.148 1079.36 106.408C1081.66 108.757 1083.07 111.974 1083.07 115.522C1083.07 122.717 1077.24 128.551 1070.05 128.551C1062.85 128.551 1057.02 122.717 1057.02 115.522V115.522C1057.02 114.376 1055.92 113.391 1054.78 113.51C1054.33 113.557 1053.88 113.581 1053.41 113.581V113.581C1051.18 113.581 1048.93 114.671 1047.54 116.418C1045.15 119.419 1041.47 121.343 1037.33 121.343C1030.33 121.343 1024.61 115.808 1024.32 108.869C1024.31 108.715 1024.18 108.592 1024.03 108.592V108.592C1016.83 108.592 1011 102.758 1011 95.5627C1011 89.847 1014.68 84.9909 1019.8 83.2352C1021.14 82.7762 1022.09 81.4543 1022.09 80.039V80.039C1022.09 72.8434 1027.92 67.0102 1035.12 67.0102C1035.19 67.0102 1035.26 67.0108 1035.33 67.0119C1039.96 67.0854 1045.6 66.2536 1050.01 64.8487C1051.26 64.4521 1052.59 64.2381 1053.97 64.2381C1058.16 64.2381 1061.88 66.2142 1064.27 69.2848C1064.87 70.0629 1065.9 70.4167 1066.85 70.1761C1067.33 70.0558 1067.82 69.9619 1068.32 69.896C1068.51 69.87 1068.66 69.7025 1068.66 69.5051V69.5051C1068.66 62.3095 1074.49 56.4763 1081.69 56.4763C1088.88 56.4763 1094.72 62.3095 1094.72 69.5051V69.5051C1094.72 70.2279 1095.49 70.7736 1096.17 70.5315C1097.54 70.0464 1099.01 69.7823 1100.54 69.7823C1103.93 69.7823 1107.02 71.0798 1109.34 73.2057C1112.1 75.7334 1116.76 77.5441 1120.5 77.5441V77.5441C1127.69 77.5441 1133.53 83.3773 1133.53 90.5729C1133.53 95.0238 1131.29 98.9533 1127.89 101.304C1124.76 103.464 1121.75 106.476 1119.59 109.607C1117.24 113.013 1113.31 115.245 1108.85 115.245C1101.66 115.245 1095.83 109.411 1095.83 102.216V102.216C1095.83 101.832 1095.43 101.557 1095.07 101.69C1093.67 102.209 1092.15 102.493 1090.56 102.493C1088.11 102.493 1085.81 101.815 1083.85 100.637C1082.37 99.7453 1080.19 100.145 1079.1 101.494V101.494Z" fill="#E3EDFC"/>
<path fill-rule="evenodd" clip-rule="evenodd" d="M92.7954 107.579C94.8185 106.709 97.27 107.147 98.8634 108.667C102.446 112.085 107.297 114.183 112.639 114.183C118.274 114.183 123.363 111.848 126.992 108.093C128.748 106.276 131.706 105.795 133.948 106.96C136.697 108.387 139.82 109.193 143.132 109.193C146.703 109.193 150.055 108.256 152.955 106.613C154.585 105.689 156.627 105.689 158.258 106.613C161.158 108.256 164.51 109.193 168.081 109.193C173.628 109.193 178.647 106.93 182.265 103.276C183.748 101.778 186.047 101.254 188.035 101.957C190.117 102.694 192.358 103.095 194.693 103.095C205.716 103.095 214.652 94.1588 214.652 83.1357C214.652 72.1127 205.716 63.1767 194.693 63.1767C193.463 63.1767 192.259 63.2879 191.091 63.5008C189.575 63.7772 188.04 62.5005 188.04 60.959V60.959C188.04 49.936 179.104 41 168.081 41C157.058 41 148.122 49.936 148.122 60.959C148.122 61.8007 148.174 62.6301 148.275 63.4444C148.589 65.9766 145.684 69.2753 143.132 69.2753V69.2753C141.19 69.2753 139.313 69.5526 137.538 70.0697C137.015 70.2222 136.479 69.8205 136.479 69.2753V69.2753C136.479 58.2522 127.543 49.3163 116.52 49.3163C113.65 49.3163 110.922 49.9218 108.456 51.0122C105.92 52.1336 102.584 51.2584 100.926 49.0357C97.2868 44.1582 91.4713 41 84.9181 41C73.895 41 64.959 49.936 64.959 60.959C64.959 63.3048 65.3637 65.5561 66.1071 67.6469C66.3823 68.4208 65.7804 69.2753 64.959 69.2753V69.2753C53.936 69.2753 45 78.2112 45 89.2343C45 100.257 53.936 109.193 64.959 109.193C67.7707 109.193 70.4465 108.612 72.8729 107.563C74.1868 106.995 75.6903 106.995 77.0042 107.563C79.4306 108.612 82.1064 109.193 84.9181 109.193C87.7156 109.193 90.3787 108.618 92.7954 107.579Z" fill="white"/>
<path fill-rule="evenodd" clip-rule="evenodd" d="M290.524 36.1521C291.772 36.5616 292.669 37.7921 292.651 39.1054C292.65 39.1681 292.649 39.2309 292.649 39.2939C292.649 46.4895 298.482 52.3227 305.678 52.3227C307.604 52.3227 309.433 51.9046 311.078 51.1542C312.66 50.433 314.637 50.7213 315.944 51.8671C318.236 53.8766 321.24 55.0947 324.528 55.0947C330.647 55.0947 335.781 50.8766 337.18 45.1894C337.565 43.6273 338.841 42.3507 340.403 41.9664C346.09 40.5671 350.309 35.4333 350.309 29.3143C350.309 22.1187 344.475 16.2855 337.28 16.2855V16.2855C336.984 16.2855 336.726 16.0805 336.658 15.7926C335.308 10.037 330.141 5.7516 323.974 5.7516C323.586 5.7516 323.202 5.76856 322.822 5.80177C321.244 5.93997 319.648 5.16914 318.775 3.84703C316.444 0.317959 312.442 -2.01024 307.896 -2.01024C306.153 -2.01024 304.491 -1.66821 302.972 -1.04762C301.08 -0.275099 298.623 -0.870074 297.297 -2.42398C294.907 -5.22438 291.352 -7 287.382 -7C280.187 -7 274.353 -1.1668 274.353 6.02881V6.02881C274.353 6.18346 274.231 6.31113 274.076 6.3176C273.018 6.36187 271.993 6.53232 271.015 6.81428C269.243 7.325 267.18 6.66022 266.043 5.20871C263.658 2.16403 259.948 0.207426 255.78 0.207426C249.661 0.207426 244.528 4.42562 243.128 10.1128C242.744 11.6748 241.467 12.9515 239.905 13.3358C234.218 14.7351 230 19.8689 230 25.9878C230 33.1834 235.833 39.0166 243.029 39.0166V39.0166C244.775 39.0166 246.461 40.1262 247.159 41.727C249.169 46.3319 253.762 49.5506 259.107 49.5506C264.18 49.5506 268.576 46.6509 270.728 42.4186C271.799 40.3123 274.767 38.8675 277.086 39.3246C277.905 39.4863 278.753 39.5711 279.62 39.5711C282.733 39.5711 285.59 38.4798 287.831 36.659C288.586 36.0454 289.599 35.8487 290.524 36.1521V36.1521Z" fill="white"/>
<path fill-rule="evenodd" clip-rule="evenodd" d="M177.785 5.94262C176.537 5.53309 175.639 4.30264 175.658 2.98932C175.659 2.92661 175.659 2.86379 175.659 2.80087C175.659 -4.39474 169.826 -10.2279 162.631 -10.2279C160.704 -10.2279 158.876 -9.80986 157.23 -9.05951C155.649 -8.33824 153.672 -8.62655 152.365 -9.77232C150.072 -11.7819 147.069 -13 143.78 -13C137.661 -13 132.528 -8.78183 131.128 -3.09468C130.744 -1.53261 129.467 -0.255964 127.905 0.128374C122.218 1.52766 118 6.66142 118 12.7804C118 19.976 123.833 25.8092 131.029 25.8092V25.8092C131.325 25.8092 131.583 26.0142 131.65 26.3021C133.001 32.0577 138.167 36.3431 144.335 36.3431C144.723 36.3431 145.107 36.3262 145.486 36.293C147.065 36.1548 148.66 36.9256 149.534 38.2477C151.865 41.7768 155.867 44.105 160.413 44.105C162.155 44.105 163.818 43.7629 165.337 43.1423C167.228 42.3698 169.685 42.9648 171.011 44.5187C173.401 47.3191 176.956 49.0947 180.926 49.0947C188.122 49.0947 193.955 43.2615 193.955 36.0659V36.0659C193.955 35.9113 194.078 35.7836 194.232 35.7771C195.29 35.7329 196.316 35.5624 197.294 35.2804C199.065 34.7697 201.128 35.4345 202.265 36.886C204.65 39.9307 208.361 41.8873 212.528 41.8873C218.647 41.8873 223.781 37.6691 225.18 31.982C225.565 30.4199 226.841 29.1432 228.403 28.7589C234.09 27.3596 238.309 22.2259 238.309 16.1069C238.309 8.91128 232.475 3.07808 225.28 3.07808V3.07808C223.533 3.07808 221.848 1.96851 221.149 0.367738C219.14 -4.23716 214.547 -7.45585 209.202 -7.45585C204.128 -7.45585 199.732 -4.55621 197.581 -0.323818C196.51 1.78241 193.541 3.2272 191.223 2.77009C190.403 2.60841 189.556 2.52366 188.688 2.52366C185.576 2.52366 182.719 3.61492 180.478 5.43568C179.723 6.04933 178.709 6.24602 177.785 5.94262V5.94262Z" fill="#E3EDFC"/>
<path fill-rule="evenodd" clip-rule="evenodd" d="M370.318 67.4738C370.311 67.6283 370.183 67.7516 370.029 67.7516V67.7516C362.833 67.7516 357 73.5848 357 80.7804C357 86.4961 360.681 91.3522 365.801 93.1079C367.14 93.5669 368.088 94.8888 368.088 96.3041V96.3041C368.088 103.5 373.922 109.333 381.117 109.333C381.188 109.333 381.258 109.332 381.328 109.331C385.963 109.258 391.597 110.089 396.014 111.494C397.261 111.891 398.589 112.105 399.967 112.105C404.385 112.105 408.29 109.906 410.646 106.543C413.107 103.029 416.672 99.4643 420.185 97.0032C423.549 94.6472 425.748 90.7427 425.748 86.3246C425.748 79.129 419.915 73.2958 412.719 73.2958V73.2958C412.423 73.2958 412.165 73.0908 412.098 72.8029C410.747 67.0473 405.58 62.7618 399.413 62.7618V62.7618C397.181 62.7618 394.927 61.6718 393.537 59.9247C391.15 56.9238 387.467 55 383.335 55C376.325 55 370.608 60.5356 370.318 67.4738Z" fill="white"/>
<g style="mix-blend-mode:color-burn" filter="url(#filter0_f_13_2)">
<path fill-rule="evenodd" clip-rule="evenodd" d="M695.414 70.8099C700.634 67.1487 706.992 65 713.852 65C731.607 65 746 79.3931 746 97.1479C746 103.084 744.391 108.643 741.586 113.415C736.366 117.077 730.008 119.225 723.148 119.225C705.393 119.225 691 104.832 691 87.0775C691 81.1418 692.609 75.5819 695.414 70.8099Z" fill="#666666"/>
</g>
<path d="M532 106C533 103.333 536 103.333 537 106" stroke="#161616" stroke-width="2" stroke-linecap="round"/>
<path d="M537 106C538 103.333 541 103.333 542 106" stroke="#161616" stroke-width="2" stroke-linecap="round"/>
<path d="M518.144 99.5555C518.838 96.7933 521.819 96.4563 523.112 98.9937" stroke="#161616" stroke-width="2" stroke-linecap="round"/>
<path d="M523.112 98.9937C523.806 96.2315 526.787 95.8945 528.081 98.4319" stroke="#161616" stroke-width="2" stroke-linecap="round"/>
<path d="M507.923 110.473C509.196 107.925 512.18 108.238 512.896 110.995" stroke="#161616" stroke-width="2" stroke-linecap="round"/>
<path d="M512.896 110.995C514.169 108.447 517.152 108.76 517.868 111.517" stroke="#161616" stroke-width="2" stroke-linecap="round"/>
<path d="M493.271 120.337C493.9 117.56 496.873 117.153 498.225 119.66" stroke="#161616" stroke-width="2" stroke-linecap="round"/>
<path d="M498.225 119.66C498.854 116.882 501.827 116.475 503.179 118.982" stroke="#161616" stroke-width="2" stroke-linecap="round"/>
</g>
<defs>
<filter id="filter0_f_13_2" x="681" y="55" width="75" height="74.2253" filterUnits="userSpaceOnUse" color-interpolation-filters="sRGB">
<feFlood flood-opacity="0" result="BackgroundImageFix"/>
<feBlend mode="normal" in="SourceGraphic" in2="BackgroundImageFix" result="shape"/>
<feGaussianBlur stdDeviation="5" result="effect1_foregroundBlur_13_2"/>
</filter>
<radialGradient id="paint0_radial_13_2" cx="0" cy="0" r="1" gradientUnits="userSpaceOnUse" gradientTransform="translate(550 201) rotate(0.895174) scale(1088.13 821.196)">
<stop stop-color="#EBF7FF"/>
<stop offset="0.375" stop-color="#CDEAFF"/>
<stop offset="1" stop-color="#96D3FF"/>
</radialGradient>
<clipPath id="clip0_13_2">
<rect width="1100" height="250" fill="white"/>
</clipPath>
</defs>
</svg>
