<svg width="500" height="500" viewBox="0 0 500 500" fill="none" xmlns="http://www.w3.org/2000/svg">
<path fill-rule="evenodd" clip-rule="evenodd" d="M0 0H500V500H0V0ZM477.108 48.4832C477.339 50.0684 477.454 52.0498 477.454 54.4277H481.498V55.0222C481.498 57.0037 481.421 58.7869 481.267 60.3721L480.92 63.3442H476.646L475.49 75.2332H476.415L475.837 81.1777H477.686L477.339 84.1499H473.642L472.833 93.0667H473.526L473.18 96.0388H471.793L471.215 101.983H478.957L477.801 113.872H470.984L470.753 116.844H469.251L468.327 125.761H471.562L470.407 137.65H472.833L472.486 140.622H471.677L471.331 143.594H470.638L469.482 155.483H469.598L469.02 161.428H470.753L470.407 164.4H469.251L468.905 167.372H471.446L470.869 173.317H475.144L474.566 179.261H463.937L463.359 185.206H470.638L469.713 194.122H468.211L467.402 203.039H464.514L464.283 206.011H464.976L464.398 211.956H463.706L463.474 214.928H465.9L465.323 220.872H466.478L465.669 229.789H463.474L463.243 232.761H462.666L461.51 244.65H461.164L460.817 247.622H463.706L463.127 253.567H464.976L464.167 262.483H457.235L456.658 268.428H460.586L459.662 277.344H458.044L457.697 280.317L456.773 289.233H459.084L458.737 292.206H463.012L462.781 295.178L462.204 301.122H452.845L452.267 307.067H464.052L462.896 318.956H456.542L455.964 324.9V330.844H452.729V336.789H453.307V348.678H456.311V360.567H443.14V372.456H456.658V381.372H452.036V390.289H453.307V393.261H454.924V405.15H455.849V408.122H452.845V414.067H455.04V425.956H446.721V437.844H444.873V443.789H452.96C452.96 448.941 452.498 452.904 451.574 455.678H450.188C449.802 457.263 449.263 458.055 448.57 458.055H425.924C425.231 458.055 424.692 457.263 424.307 455.678H425.578C424.808 452.904 424.346 448.941 424.191 443.789H415.988V437.844H417.837V425.956H426.156V414.067H423.96V408.122H426.964V405.15H426.04V393.261H424.422V390.289H423.152V381.372H427.773V372.456H414.255V360.567H427.427V348.678H424.422V336.789H423.845V330.844H427.08V324.9L426.502 318.956H432.857L431.701 307.067H419.917L419.339 301.122H428.582L428.004 295.178L427.773 292.206H423.498L423.152 289.233H420.841L420.032 280.317H420.147L419.801 277.344H421.418L420.61 268.428H416.682L416.104 262.483H423.036L422.112 253.567H420.263L419.686 247.622H416.797L416.451 244.65H416.913L415.757 232.761H416.219L415.988 229.789H418.068L417.144 220.872H415.988L415.411 214.928H412.984L412.638 211.956H413.331L412.753 206.011H412.06L411.713 203.039H414.602L413.678 194.122H415.18L414.255 185.206H406.977L406.398 179.261H417.028L416.451 173.317H405.821L405.243 167.372H407.554L407.323 164.4H412.638L412.407 161.428H412.984L412.407 155.483H408.363L407.208 143.594H407.785L407.438 140.622H406.514L406.167 137.65H406.052L404.896 125.761H402.239L401.315 116.844H402.702L402.47 113.872H392.534L391.379 101.983H387.469L387.122 104.955H383.425L383.079 107.928H383.771L382.5 119.817H387.122L386.429 125.761H387.469L387.122 128.733H387.238L386.198 137.65H387.815L387.469 140.622H387.584L386.544 149.539H384.234L383.194 158.456H385.62L384.234 170.344H382.963L382.27 176.289H374.76L374.066 182.233H393.361L392.321 191.15H372.333L371.64 197.094H398.214L397.521 203.039H375.915L374.529 214.928H379.959L379.612 217.9H387.353L386.313 226.817H388.74L388.393 229.789H387.584L386.544 238.706H382.5L382.27 241.083L382.732 244.65H374.991L375.337 247.622H370.254L371.293 256.539H367.25L368.636 268.428H383.194L384.234 277.344H381.114L381.808 283.289H370.485L371.871 295.178H371.178L371.871 301.122H369.907L370.947 310.039H385.967L386.313 313.011H385.042L385.736 318.956H382.5L382.847 321.928H381.692L382.385 327.872H373.835L374.875 336.789H384.812L386.198 348.678H385.967L386.66 354.622H387.584L388.624 363.539H390.704L392.09 375.428H390.011L391.397 387.317H391.513L392.09 393.261H392.321L393.708 405.15H394.401L395.441 414.067H401.218L402.258 422.983H411.27L411.616 425.956H401.218L402.604 437.844H397.521L397.636 438.439C397.677 438.649 397.707 438.97 397.726 439.404C397.731 439.513 397.735 439.63 397.739 439.754C397.744 439.934 397.747 440.128 397.749 440.337C397.75 440.489 397.751 440.649 397.751 440.817C397.829 442.006 397.906 442.996 397.983 443.789H397.636V444.978C397.636 445.704 397.628 446.389 397.612 447.032C397.593 447.793 397.562 448.495 397.521 449.139C397.508 449.333 397.494 449.528 397.479 449.722C397.447 450.149 397.41 450.576 397.368 451.003C397.312 451.571 397.248 452.138 397.174 452.706H398.676C398.522 453.894 398.33 454.885 398.098 455.678H391.397C391.012 457.263 390.511 458.055 389.895 458.055H363.553C363.09 458.055 362.667 457.857 362.282 457.461C362.234 457.365 362.188 457.271 362.142 457.18L362.061 457.021C361.967 456.839 361.875 456.67 361.786 456.513C361.593 456.175 361.412 455.896 361.242 455.678H367.943C367.712 455.281 367.365 454.291 366.903 452.706H365.401C365.016 451.12 364.708 449.535 364.477 447.95C364.323 446.365 364.169 445.176 364.015 444.383L363.899 443.789H364.246L363.668 437.844H368.636L367.365 425.956H377.764L377.417 422.983H368.405L368.29 421.794V422.983H350.266V425.956H362.282V437.844H354.887V443.789H343.68C343.68 445.374 343.603 446.959 343.449 448.544C343.295 450.13 343.141 451.517 342.987 452.706H341.947C341.639 454.291 341.408 455.281 341.254 455.678H333.744C333.359 457.263 332.819 458.055 332.126 458.055H310.059C309.365 458.055 308.826 457.263 308.441 455.678H315.835C315.682 455.281 315.45 454.291 315.142 452.706H316.182L316.141 452.386L316.066 451.781L316.012 451.318L315.961 450.865C315.92 450.5 315.879 450.121 315.838 449.729L315.767 449.015L315.72 448.544C315.639 447.715 315.58 446.885 315.541 446.055C315.506 445.3 315.489 444.544 315.489 443.789H326.581V437.844H333.975V425.956H321.959V422.983H339.983V414.067H321.566L320.18 420.011C319.717 421.993 319.217 423.974 318.677 425.956H317.407C316.636 428.73 315.712 431.702 314.634 434.872H290.255C289.906 435.95 289.549 436.987 289.185 437.983C288.744 439.185 288.292 440.328 287.829 441.411C286.981 442.996 286.134 444.78 285.287 446.761H304.351C304.12 447.157 303.85 447.554 303.542 447.95C303.311 448.346 303.042 448.941 302.733 449.733H298.112L297.188 450.922C296.879 451.319 296.571 451.913 296.263 452.706H287.944C285.171 456.668 282.322 459.641 279.395 461.622H281.243C280.011 462.415 278.74 463.009 277.431 463.406C276.121 463.802 274.812 464 273.502 464C272.039 464 270.614 463.802 269.228 463.406C269.081 463.361 268.935 463.314 268.788 463.265C268.626 463.21 268.465 463.153 268.303 463.093C267.816 462.911 267.33 462.702 266.843 462.465C266.55 462.322 266.256 462.169 265.963 462.007C265.858 461.949 265.754 461.89 265.649 461.83C265.533 461.762 265.416 461.693 265.299 461.622H263.451C260.37 459.641 257.52 456.668 254.901 452.706H263.219C262.911 451.913 262.603 451.319 262.295 450.922C262.22 450.794 262.142 450.666 262.059 450.538C261.886 450.27 261.695 450.001 261.486 449.733H266.223L264.606 446.761H245.542C245.138 445.722 244.724 444.737 244.298 443.806C243.913 442.963 243.519 442.165 243.116 441.411C242.346 439.43 241.575 437.25 240.805 434.872H265.299C264.837 433.287 264.375 431.9 263.913 430.711C263.451 429.126 263.027 427.541 262.642 425.956H263.913C262.988 422.389 262.103 418.426 261.255 414.067H237.917C237.84 413.274 237.763 412.68 237.686 412.283C237.608 411.887 237.493 411.491 237.339 411.094H242.423C242.378 410.634 242.32 410.24 242.249 409.913C242.198 409.677 242.141 409.477 242.076 409.311L241.845 408.122H242.769C242.416 406.102 242.072 404.081 241.739 402.061C241.418 400.118 241.107 398.176 240.805 396.233H241.499L240.458 387.317H239.418L238.379 378.4H236.068L235.028 366.511H237.455L237.224 363.539H235.722C235.645 361.954 235.567 360.567 235.49 359.378C235.414 357.793 235.298 356.208 235.144 354.622H236.068L235.837 351.65H239.418C239.342 350.065 239.265 348.678 239.188 347.489L238.957 342.733H237.108C237.031 341.941 236.992 340.95 236.992 339.761H235.028C234.951 338.969 234.913 337.978 234.913 336.789H235.028C235.028 335.204 234.951 333.222 234.797 330.844H228.211L227.865 318.956H236.761C236.734 318.395 236.711 317.858 236.694 317.347C236.687 317.153 236.681 316.962 236.676 316.776L236.669 316.518L236.658 316.034L236.652 315.66C236.648 315.361 236.646 315.072 236.646 314.794C236.646 314.521 236.645 314.247 236.643 313.973C236.638 313.424 236.629 312.875 236.615 312.325C236.607 312.006 236.597 311.686 236.586 311.366C236.57 310.924 236.552 310.481 236.53 310.039H238.726V306.472C238.726 306.202 238.724 305.931 238.72 305.661C238.715 305.327 238.707 304.993 238.696 304.659C238.677 304.075 238.648 303.49 238.61 302.906V298.15H224.958V304.094H224.264V313.011H224.149V315.983H223.225V327.872H224.264V333.817H224.149V369.483H224.264V381.372H226.229V393.261H224.611V399.206H224.149V405.15H225.535V417.039H223.571V420.011H226.459V425.956H227.5V428.928H226.575V437.844H226.113V442.005L226.111 442.261C226.11 442.37 226.108 442.478 226.106 442.586C226.092 443.185 226.056 443.784 225.998 444.383C225.998 445.176 225.959 445.969 225.882 446.761H222.993C222.917 448.742 222.685 450.724 222.3 452.706H225.535C225.377 453.516 225.24 454.172 225.123 454.671C225.011 455.149 224.917 455.484 224.842 455.678H218.256C217.871 457.263 217.332 458.055 216.639 458.055H193.069C192.376 458.055 191.837 457.263 191.452 455.678H198.037C197.729 455.281 197.498 454.291 197.344 452.706H194.109C193.724 450.724 193.493 448.742 193.416 446.761H196.42C196.375 446.075 196.344 445.257 196.325 444.308C196.311 443.611 196.304 442.844 196.304 442.005V437.844H196.766V428.928H197.69V425.956H196.651V420.011H193.762V417.039H195.727V405.15H194.34V399.206H194.802V393.261H196.42V381.372H194.456V369.483H194.34V333.817H194.456V327.872H193.416V315.983H194.34V313.011H194.456V304.094H195.149V298.15H194.109V283.289H195.033V271.4H194.802V259.511H192.954V250.594H189.603V238.706H198.846V226.817H195.033V223.844H195.842V214.928H197.113V211.956H196.882V208.983H191.452V197.094H194.34V194.122H194.571V191.15H197.459V179.261H196.073V176.289H207.28V167.372H197.344V155.483H189.834V146.567H178.878V149.539H176.452V153.7C176.452 156.474 176.336 159.05 176.105 161.428H184.308C183.769 166.976 182.883 169.75 181.651 169.75H162.472V170.344H163.627V182.233H163.858V194.122H163.28V206.011H161.778V214.928H167.555V220.872H162.703V229.789H160.161V241.678H164.551V247.622H163.742V259.511H162.934V271.4H161.547V283.289H160.276V292.206H164.551V301.122H162.818V313.011H163.511V315.983H164.32V321.928H170.097V330.844H166.168V342.733H167.902V354.622H163.049V366.511H165.013V372.456H165.822V381.372H167.671V393.261H166.978V402.178H163.974V411.094H163.627V417.039H163.511V425.956H164.782V434.872H163.742V442.005C163.742 443.987 163.704 445.572 163.627 446.761H162.472C162.24 450.724 161.817 453.696 161.201 455.678H161.432C161.046 457.263 160.507 458.055 159.814 458.055H136.707C136.09 458.055 135.513 457.263 134.974 455.678H134.743C134.203 453.696 133.78 450.724 133.472 446.761H134.511C134.483 446.331 134.46 445.849 134.443 445.314C134.422 444.679 134.408 443.97 134.401 443.188C134.397 442.811 134.396 442.417 134.396 442.005V434.872H135.436V425.956H134.165V417.039H134.28V411.094H134.627V402.178H137.631V393.261H138.324V381.372H136.476V372.456H135.667V366.511H133.703V354.622H138.555V342.733H136.822V330.844H140.75V321.928H134.974V315.983H134.165V313.011H133.472V301.122H135.205V292.206H130.93V283.289H132.201V271.4H133.587V259.511H134.396V247.622H135.205V241.678H130.814V229.789H133.356V220.872H138.208V214.928H132.432V206.011H133.934V194.122H134.511V182.233H134.28V170.344H133.125V169.75H113.946C112.791 169.75 111.866 166.976 111.173 161.428H108.697H104.422C104.114 168.561 103.344 172.128 102.111 172.128H79.0039C77.9253 172.128 77.0396 171.335 76.3467 169.75C75.7305 168.165 75.0757 165.787 74.3823 162.617L74.0356 161.428H78.3105C77.9253 159.843 77.3862 158.257 76.6934 156.672C76 154.691 75.1143 153.304 74.0356 152.511H69.8765C68.2588 153.7 67.1421 156.672 66.5259 161.428H71.4941C71.3975 162.421 71.3208 163.413 71.2646 164.406C71.1865 165.791 71.1475 167.176 71.1475 168.561C71.1475 170.543 71.186 172.128 71.2627 173.317H69.5298C69.6069 175.298 69.915 177.28 70.4541 179.261H57.3984C57.8604 181.243 58.6694 183.224 59.8247 185.206H63.1753C63.4365 185.709 63.7183 186.213 64.021 186.717C64.4326 187.402 64.8823 188.087 65.3706 188.772C66.2949 189.565 67.2573 190.357 68.2588 191.15H71.9561C72.5723 191.546 73.2271 191.943 73.9204 192.339C74.6133 192.735 75.3452 193.33 76.1152 194.122H76.231C77.5405 194.915 78.8115 195.906 80.0439 197.094C81.2759 197.887 82.4316 198.878 83.5098 200.067H84.2031C85.1274 200.859 85.9746 201.85 86.7451 203.039C87.5923 203.832 88.4009 204.822 89.1714 206.011H89.6333C89.7441 206.125 89.8516 206.239 89.9561 206.353C90.2148 206.635 90.4541 206.918 90.6733 207.2C90.9814 207.596 91.2896 208.191 91.5977 208.983H89.4023C89.5122 209.125 89.6172 209.266 89.7168 209.407C89.8975 209.662 90.062 209.917 90.2109 210.172C90.3237 210.317 90.4365 210.489 90.5493 210.686C90.7446 211.03 90.9399 211.453 91.1353 211.956H95.9878L96.6812 213.145C96.9893 213.541 97.2588 214.135 97.4897 214.928H81.1992C82.7397 218.098 83.9722 221.07 84.8965 223.844H105.115L106.502 228.6C106.964 229.789 107.388 231.176 107.773 232.761H81.4302L81.8921 233.95C82.0464 234.346 82.1621 234.941 82.2388 235.733H93.3306C93.5615 236.526 93.7925 237.517 94.0239 238.706L94.6016 241.678H92.8682C93.6387 245.244 94.2935 249.208 94.8325 253.567H88.8247C88.9785 254.359 89.1328 255.35 89.2866 256.539C89.3438 256.978 89.3955 257.389 89.4414 257.774C89.5205 258.432 89.5845 259.011 89.6333 259.511H112.51L113.55 268.428H92.0596L92.522 273.183C92.6758 274.372 92.7915 275.759 92.8682 277.344H102.805L103.151 283.289H104.769L105.115 289.233H107.195C107.349 290.819 107.426 292.8 107.426 295.178L107.657 301.122L107.773 307.067H108.466C108.543 307.859 108.582 308.85 108.582 310.039V313.011H108.928V321.928H109.968V323.711C109.968 324.317 109.962 324.924 109.951 325.53C109.933 326.509 109.9 327.488 109.853 328.467V333.817H108.697V336.789H108.928C108.928 338.374 108.89 339.959 108.812 341.544C108.812 342.733 108.774 344.12 108.697 345.706H109.043L108.697 354.622H109.622L109.39 359.378C109.313 360.567 109.198 361.954 109.043 363.539H107.773C107.773 363.617 107.771 363.695 107.769 363.772C107.756 364.091 107.719 364.409 107.657 364.728V366.511H110.43L109.737 375.428H101.996C101.919 377.013 101.765 378.598 101.534 380.183C101.488 380.537 101.442 380.909 101.396 381.298C101.288 382.216 101.18 383.231 101.072 384.344H117.362L117.016 387.317H124.063C123.91 388.902 123.717 390.487 123.486 392.072C123.332 393.261 123.139 394.648 122.908 396.233H108.466L108.235 397.422C108.198 397.609 108.162 397.84 108.125 398.115C108.085 398.423 108.044 398.787 108.004 399.206H103.267L102.227 405.15H119.904L119.673 406.339L119.327 408.122H92.0596C91.6743 410.104 91.251 412.085 90.7886 414.067C90.4038 416.048 89.98 418.03 89.5176 420.011H97.9521L96.4502 425.956H112.163L111.239 428.928H104.422C104.345 429.324 104.191 429.72 103.96 430.117C103.806 430.513 103.652 431.107 103.498 431.9H95.7568L92.522 440.817H97.0278C96.0264 443.195 95.0249 445.374 94.0239 447.355C93.0225 448.941 91.9824 450.724 90.9043 452.706H86.7451C84.126 456.668 81.2759 459.641 78.1953 461.622H78.7729C77.5405 462.415 76.2695 463.009 74.96 463.406C73.6504 463.802 72.3413 464 71.0317 464C69.5684 464 68.105 463.802 66.6411 463.406C65.2549 463.009 63.9067 462.415 62.5977 461.622H62.1353C58.8232 459.641 55.8579 456.668 53.2388 452.706H57.3984C56.2432 450.724 55.1646 448.941 54.1631 447.355C53.1621 445.374 52.1606 443.195 51.1592 440.817H46.6533C46.1143 439.231 45.5752 437.844 45.0356 436.656L43.4185 431.9H51.2749L50.3506 428.928H57.1675C57.0903 428.135 56.9746 427.541 56.8208 427.145L56.3584 425.956H40.6455C40.3374 425.163 40.0679 424.172 39.8364 422.983C39.6055 421.794 39.3745 420.804 39.1436 420.011H30.5938L29.438 414.067C29.1333 412.759 28.8452 411.452 28.5737 410.145C28.4336 409.47 28.2983 408.796 28.1675 408.122H55.4341C55.3955 407.727 55.3574 407.381 55.3188 407.084C55.2803 406.786 55.2417 406.538 55.2031 406.339L54.9722 405.15H37.2949C36.9868 403.565 36.6787 401.583 36.3706 399.206H41.1074C41.0303 398.413 40.9536 397.819 40.8765 397.422L40.6455 396.233H55.0874L54.0479 387.317H46.8843L46.5376 384.344H30.2471C30.1699 382.759 30.0542 381.372 29.9004 380.183L29.438 375.428H37.1792L36.4858 366.511H33.7129L33.4819 363.539H34.7529C34.6758 361.954 34.5991 360.567 34.522 359.378L34.291 354.622H33.3667C33.3667 353.037 33.3281 351.65 33.251 350.461C33.251 349.766 33.2437 349.07 33.2285 348.375C33.2095 347.485 33.1787 346.595 33.1353 345.706H32.2109C32.2109 344.12 32.1729 342.733 32.0957 341.544V337.383V336.789H31.98V335.006C32.0571 334.609 32.0957 334.213 32.0957 333.817H34.7529C35.1382 327.476 35.9468 324.306 37.1792 324.306H59.1313C60.3638 324.306 61.2881 325.098 61.9043 326.683C62.5205 328.269 63.2139 330.646 63.9839 333.817H61.3267L61.4424 334.411C61.5962 334.807 61.7119 335.204 61.7886 335.6C61.9429 335.996 62.0586 336.393 62.1353 336.789H62.251C63.2524 340.752 64.4849 343.724 65.9482 345.706H66.9878C67.9893 347.291 69.3374 348.083 71.0317 348.083C72.0332 348.083 72.9575 347.885 73.8047 347.489C74.1406 347.332 74.4585 347.144 74.7578 346.924C75.2139 346.59 75.6279 346.184 76 345.706H75.6533C77.4248 343.724 78.5415 340.752 79.0039 336.789H78.7729C78.8408 336.088 78.894 335.504 78.9321 335.036C78.98 334.444 79.0039 334.038 79.0039 333.817H80.1592L80.2749 331.439C80.2749 327.872 80.0054 324.702 79.4658 321.928H78.5415C77.8486 318.361 76.6162 315.389 74.8447 313.011H74.498C74.2041 312.507 73.8896 312.039 73.5542 311.606C73.0986 311.018 72.6045 310.496 72.0718 310.039C71.1475 308.85 70.0688 307.859 68.8364 307.067H68.1436L63.4062 303.5L61.7886 302.311C61.3267 301.915 60.8262 301.519 60.2866 301.122C57.1289 298.348 54.0864 294.385 51.1592 289.233H49.0796C48.0015 287.252 47 285.271 46.0757 283.289H44.458L43.3027 280.911L42.1475 277.344H32.0957C31.5566 275.759 31.0557 274.372 30.5938 273.183L29.207 268.428H50.6973C50.312 266.843 49.9268 265.456 49.542 264.267C49.2339 262.681 48.8872 261.096 48.502 259.511H25.5098C25.2788 258.719 25.0864 257.728 24.9321 256.539L24.3545 253.567H30.3623C29.6694 249.604 29.0146 245.641 28.3984 241.678H30.1313L29.438 235.733H18.3467C18.2695 234.941 18.1924 234.346 18.1157 233.95C18.0386 233.554 18 233.157 18 232.761H44.3428C44.2778 232.093 44.2129 231.459 44.1479 230.861C44.0586 230.041 43.9697 229.287 43.8804 228.6L43.4185 223.844H23.1992L22.5059 214.928H38.7969L38.5659 211.956H33.7129L33.4819 208.983H35.793C35.793 208.191 35.7544 207.596 35.6772 207.2V206.011H35.2153L34.8687 200.067H34.1753L34.0596 194.122H33.8286V191.15H30.1313C30.0542 190.357 30.0161 189.367 30.0161 188.178V185.206H26.6655L26.5498 179.261H39.7212C39.644 178.469 39.6055 177.478 39.6055 176.289V173.317H41.4541V172.722V166.778C41.4541 164.796 41.4927 163.013 41.5698 161.428H36.6016C36.6299 160.851 36.6528 160.3 36.6704 159.776C36.7017 158.859 36.7173 158.023 36.7173 157.267C36.7173 155.681 36.7554 154.096 36.8325 152.511H44.9204V150.728C44.9971 150.332 45.0356 149.935 45.0356 149.539H36.8325C36.9868 147.161 37.0635 145.18 37.0635 143.594H35.793L36.1396 137.65H34.1753C34.4062 133.291 34.6758 129.328 34.9839 125.761H35.9082L36.3706 119.817H37.6416L38.6812 110.9H37.5259C37.7568 109.315 37.9497 107.928 38.1035 106.739C38.3345 105.154 38.5273 103.569 38.6812 101.983H37.7568L39.1436 93.0667H41.5698C41.6465 92.2742 41.7236 91.6797 41.8008 91.2834L42.0317 90.0945H38.7969C39.105 88.5093 39.4131 87.1223 39.7212 85.9333L40.6455 81.1777H42.4941L43.8804 75.2334C44.3428 72.8555 44.8433 70.874 45.3823 69.2888H47.4619C47.9243 67.7036 48.3862 66.3167 48.8486 65.1277C49.2012 63.9182 49.5762 62.709 49.9736 61.4995C50.0972 61.1238 50.2227 60.748 50.3506 60.3723H50.0039C50.1582 59.5796 50.3506 58.9851 50.5815 58.5889C50.8125 58.1926 51.0054 57.7964 51.1592 57.3999H49.542C49.6958 56.6074 49.8882 56.0129 50.1196 55.6167L50.8125 54.4277H49.6572C50.7358 52.05 51.8525 49.8704 53.0078 47.8889C54.2402 45.9075 55.4727 44.124 56.7051 42.5388H58.438C60.21 40.5574 62.0586 38.9722 63.9839 37.7834C65.9868 36.5945 68.0664 36 70.2231 36C74.3052 36 78.1567 38.1797 81.7769 42.5388H80.1592C82.624 45.313 85.0117 49.2759 87.3228 54.4277H88.3623L89.0557 55.6167C89.2866 56.0129 89.5176 56.6074 89.749 57.3999H91.3662C91.5205 57.7964 91.7129 58.1926 91.9443 58.5889C92.1753 58.9851 92.3677 59.5796 92.522 60.3723H92.8682C93.1538 61.2112 93.4282 62.05 93.6919 62.8889C93.9268 63.6353 94.1528 64.3813 94.3706 65.1277C94.5708 65.5688 94.7656 66.0374 94.9551 66.5332C95.2759 67.3733 95.5815 68.292 95.8726 69.2888H93.9082C94.5244 70.874 95.0635 72.8555 95.5259 75.2334C96.0649 77.2148 96.5654 79.1963 97.0278 81.1777H95.2949L97.1431 90.0945H100.378L100.956 93.0667H98.5298C98.7222 94.0574 98.8999 95.0481 99.0625 96.0388H118.798V87.1221H106.782V75.2332H109.093V63.3442H112.097V60.3721H113.83V57.9944C113.83 54.0315 114.061 50.8611 114.523 48.4832H111.981C112.598 44.124 113.445 41.9443 114.523 41.9443H182.229C183.307 41.9443 184.154 44.124 184.771 48.4832H187.197C187.582 51.2573 187.774 54.4277 187.774 57.9944V60.3721H186.041V63.3442H183.037V75.2332H180.727V87.1221H192.742V96.0388H171.252V107.928H179.456V116.844H188.352V125.761H188.121V134.678H191.472V143.594H208.667V140.622H196.882V131.706H196.766V122.789H194.687V119.817H201.734V113.872H196.42V101.983H196.882V93.0667H193.647V81.1777H194.225V75.2332H193.878V69.2888H194.802V66.3167H193.762V57.9944C193.762 56.0129 193.839 53.8333 193.993 51.4556H194.571C195.11 45.1147 196.073 41.9443 197.459 41.9443H221.029C222.416 41.9443 223.378 45.1147 223.917 51.4556H223.34C223.494 53.8333 223.571 56.0129 223.571 57.9944V66.3167H224.611V69.2888H223.687V75.2332H224.033V81.1777H223.456V93.0667H226.69V101.983H226.229V113.872H231.543V119.817H224.495V122.789H226.575V131.706H226.69V140.622L236.415 140.622L236.877 134.678H237.455C237.608 133.093 237.763 131.706 237.917 130.517C237.965 130.021 238.009 129.525 238.05 129.029C238.139 127.94 238.21 126.851 238.263 125.761H238.379L239.418 116.844H239.072C239.226 115.259 239.38 113.872 239.534 112.683L240.228 107.928H239.303L240.228 101.983C240.536 99.6055 240.844 97.624 241.152 96.0388H240.112C240.189 95.2463 240.266 94.6519 240.343 94.2556L240.574 93.0667H239.418L239.996 90.0945H239.765L240.112 88.311L240.343 87.1223H238.263L238.841 84.1499C238.898 83.8562 238.955 83.5747 239.012 83.3052C239.065 83.0559 239.118 82.8171 239.17 82.5884C239.235 82.3113 239.299 82.0493 239.363 81.8025C239.42 81.582 239.477 81.3738 239.534 81.1777H242.307C242.692 79.5925 243.077 78.2056 243.462 77.0166L244.618 72.261H243.347L244.271 69.2888H242.307C242.461 68.4963 242.615 67.9019 242.769 67.5056L243.231 66.3167H249.239C249.507 65.5305 249.774 64.793 250.042 64.1042C250.313 63.4043 250.585 62.7549 250.857 62.1555L252.475 57.3999H252.128C252.59 56.2112 253.052 55.2205 253.514 54.4277C253.977 53.239 254.438 52.248 254.901 51.4556H257.096C257.327 50.6628 257.558 50.0686 257.789 49.6721L258.713 48.4834H255.248C257.558 44.124 260.023 41.1519 262.642 39.5667H265.761C268.765 37.189 271.923 36 275.235 36C278.47 36 281.59 37.189 284.594 39.5667H281.59C284.132 41.1519 286.673 44.124 289.215 48.4834H292.682C292.841 48.689 292.991 48.8945 293.13 49.1001C293.259 49.2908 293.379 49.4814 293.49 49.6721C293.798 50.0686 294.106 50.6628 294.415 51.4556H292.219C293.375 53.437 294.337 55.4185 295.108 57.3999H295.455C296.071 58.9851 296.648 60.5703 297.188 62.1555C297.727 63.3445 298.266 64.7314 298.805 66.3167H292.913L293.375 67.5056C293.529 67.9019 293.683 68.4963 293.837 69.2888H295.801L296.263 70.4778C296.315 70.6108 296.362 70.7664 296.405 70.9443C296.444 71.1038 296.479 71.281 296.511 71.4763C296.549 71.7119 296.582 71.9734 296.61 72.261H297.881L300.191 81.1777H297.303L298.689 87.1223H300.769L301.462 90.0945H301.578L302.156 93.0667H303.311L303.889 96.0388H304.929C305.237 97.624 305.545 99.6055 305.853 101.983L306.777 107.928H307.586C307.817 109.513 308.009 111.098 308.164 112.683C308.395 113.872 308.587 115.259 308.741 116.844H309.088L309.55 121.6C309.704 122.789 309.858 124.176 310.012 125.761H309.781L310.243 130.517C310.326 131.156 310.398 131.854 310.458 132.608C310.51 133.256 310.554 133.946 310.59 134.678H310.012L310.359 140.622H311.63L311.976 146.567H309.435V147.756C309.512 148.152 309.55 148.746 309.55 149.539H317.291C317.291 151.124 317.368 153.105 317.522 155.483H307.008L307.355 167.372H314.056L314.171 173.317H321.843V170.344H329.007V158.456H326.696V149.539H327.389V140.622H324.039V137.65H321.612V128.733H320.919V125.761H322.421V119.817H323.923V107.928H311.214V104.955H311.907V101.983H316.644V99.011H315.027V96.0388H323.923V93.0667H321.728V90.0942H321.612V78.2053H322.19V72.261H330.162V66.3167H331.202V60.3721H331.664V57.3999H319.302C319.378 53.0405 319.764 49.0776 320.457 45.511H321.728C322.19 43.1333 322.845 41.9443 323.692 41.9443H345.76C346.53 41.9443 347.185 43.1333 347.724 45.511H346.453C347.223 48.6814 347.608 52.6443 347.608 57.3999H359.971V60.3721H359.509V66.3167H358.469V72.261H350.497V78.2053H349.919V90.0942H350.035V93.0667H352.23V96.0388H343.333V99.011H344.951V101.983H340.214V104.955H339.521V107.928H350.381L350.728 104.955H354.425L354.656 101.983H361.357L361.704 99.011H355.003L355.349 96.0388H357.313L357.66 93.0667H358.238L358.584 90.0942H359.624L359.855 87.1221H361.126L362.05 78.2053H361.473L362.166 72.261H368.751L369.33 66.3167H364.015L364.592 60.3721H370.369L370.6 57.3999H362.744L362.975 55.0222C363.36 51.0591 363.938 47.8887 364.708 45.511H363.784C364.477 43.1333 365.401 41.9443 366.557 41.9443H392.09C392.784 41.9443 393.361 43.1333 393.823 45.511H394.863C395.402 48.2852 395.672 51.4556 395.672 55.0222C395.672 56.2109 395.633 57.0037 395.557 57.3999H398.236C398.209 56.6418 398.195 55.8494 398.195 55.0222V54.4277H401.315C401.315 53.2388 401.354 52.248 401.431 51.4556C401.48 50.6929 401.529 50.0117 401.579 49.4124C401.606 49.0771 401.634 48.7673 401.662 48.4832H403.741C404.204 44.124 404.935 41.9443 405.937 41.9443H427.658C428.505 41.9443 429.198 42.5388 429.737 43.7278C430.354 44.9165 430.854 46.5017 431.239 48.4832H429.16C429.26 48.8271 429.353 49.2085 429.438 49.6272C429.493 49.894 429.545 50.176 429.594 50.4734C429.625 50.6614 429.654 50.8555 429.683 51.0554C429.701 51.1863 429.72 51.3196 429.737 51.4556C429.862 52.0991 429.965 52.6846 430.045 53.2122C430.113 53.6589 430.164 54.0642 430.199 54.4277H427.08L427.311 56.8054L427.889 63.3442H424.191L425.347 75.2332H432.279L432.857 81.1777H426.387L426.733 84.1499H431.47L432.279 93.0667H429.391L429.737 96.0388H422.689L423.267 101.983H420.494L421.649 113.872H431.586L431.933 116.844H430.431L431.355 125.761H434.012L435.167 137.65H435.283L435.63 140.622H436.554L436.785 143.594H436.208L437.363 155.483H440.367L441.522 143.594H442.215L442.562 140.622H443.486L443.717 137.65H441.291L442.446 125.761H439.211L440.02 116.844H441.638L441.869 113.872H448.686L449.841 101.983H441.984L442.562 96.0388H444.064L444.295 93.0667H443.602L444.411 84.1499H448.108L448.455 81.1777H446.606L447.184 75.2332H446.259L447.415 63.3442H451.689L452.383 56.8054L452.614 54.4277H448.57C448.724 53.635 448.878 52.6443 449.032 51.4556C449.186 50.2666 449.379 49.2759 449.61 48.4832H455.502C455.887 46.5017 456.388 44.9165 457.004 43.7278C457.621 42.5388 458.313 41.9443 459.084 41.9443H480.805C481.806 41.9443 482.538 44.124 483 48.4832H477.108ZM101.996 107.928L102.458 110.9H103.498L104.538 119.817H103.267C103.498 121.798 103.69 123.78 103.844 125.761H102.92C103.151 127.743 103.344 129.724 103.498 131.706L103.96 137.65H105.924C106.078 140.028 106.155 142.009 106.155 143.594H107.542C107.619 144.387 107.657 145.378 107.657 146.567H117.527V134.678H114.177V125.761H114.408V116.844H105.511V107.928H101.996ZM237.455 143.594L219.643 143.594V155.483H227.153V167.372H237.089L246.004 167.372L246.582 155.483H241.845L242.191 149.539H234.451L234.682 146.567H237.224C237.3 145.774 237.377 144.783 237.455 143.594ZM237.089 173.317V176.289H225.882V179.261H227.268V191.15H224.38V194.122H224.149V197.094H221.26V208.983H226.69V211.956H226.921V214.928H225.651V223.844H224.842V226.817H228.655V238.706H219.412V250.594H222.762V259.511H224.611V271.4H224.842V283.289H223.917V295.178H226.94V289.233H241.845V286.261H238.61C238.61 284.676 238.571 283.289 238.494 282.1V277.344H229.598V265.456H232.717V262.483H237.57V259.511H225.67V247.622H219.777V241.678H238.494V238.706H232.949V226.817H234.682V220.872H234.335V214.928H238.494V203.039H228.442V200.067H250.626V197.094C250.703 195.509 250.741 194.122 250.741 192.933V188.178H244.618V182.233L244.849 176.289H248.546C248.623 175.496 248.662 174.506 248.662 173.317H237.089ZM317.915 405.15V414.067H298.343L298.92 411.094H303.889L304.235 409.311L304.466 408.122H305.391C305.776 406.141 306.123 404.159 306.431 402.178C306.815 400.196 307.162 398.215 307.47 396.233H308.164L309.319 387.317H308.279L309.319 378.4H307.008C307.161 377.094 307.296 375.788 307.415 374.482C307.476 373.807 307.533 373.131 307.586 372.456C307.728 371.239 307.855 370.022 307.968 368.806C308.039 368.041 308.104 367.276 308.164 366.511H310.474C310.628 364.926 310.706 363.935 310.706 363.539H309.319C309.347 362.961 309.375 362.41 309.403 361.885C309.452 360.969 309.501 360.134 309.55 359.378C309.704 357.793 309.82 356.208 309.896 354.622H310.821V352.839C310.835 352.765 310.849 352.691 310.86 352.617C310.881 352.485 310.897 352.354 310.91 352.222C310.928 352.031 310.937 351.841 310.937 351.65H314.518L314.865 342.733H311.052C311.052 341.544 311.09 340.554 311.167 339.761H311.861C311.938 338.969 311.976 337.978 311.976 336.789H308.972L309.088 330.844H310.359L310.59 318.956H310.752V321.928H311.792V327.872H326.465V336.789H322.306V348.678H321.035V354.622H320.341V363.539H321.266V375.428H321.497V387.317H321.843V393.261H319.995V405.15H317.915ZM323.923 318.956H311.398V310.039H325.079V313.011H323.923V318.956ZM310.059 301.122V310.039H294.299C294.068 302.509 293.221 298.744 291.757 298.744H268.65V298.15H253.63V295.178H256.98V289.233H271.885V286.261H268.65V282.1C268.65 281.122 268.635 280.143 268.605 279.165L268.596 278.846C268.579 278.345 268.558 277.845 268.534 277.344H259.638V265.456H262.757V262.483H267.61V259.511H255.709V247.622H249.817V241.678H268.534V238.706H262.988V226.817H264.721V220.872H264.375V217.9C264.375 216.711 264.413 215.72 264.49 214.928H268.534V208.983C268.534 208.152 268.541 207.321 268.555 206.49C268.573 205.34 268.605 204.189 268.65 203.039H258.482V200.067H277.315L278.239 201.256H279.164H302.733C302.891 201.256 303.101 201.072 303.365 200.706C303.489 200.533 303.625 200.32 303.773 200.067C304.774 197.293 305.275 193.33 305.275 188.178H325.494V182.233L333.628 182.233V191.15H313.64V197.094H340.214V203.039H318.608V214.928H324.039V217.9H331.78V226.817H334.206V229.789H333.397V238.706H329.354V244.65H321.612V247.622H316.529V256.539H312.601V268.428H327.158V277.344H324.039V283.289H312.716V295.178H312.023V301.122H310.059ZM398.427 60.3721H397.751L397.521 61.561L397.347 63.3442H398.773L398.427 60.3721ZM395.914 72.261H395.094L394.401 78.2053H394.979L393.939 87.1221H392.784L392.437 90.0942H391.397L391.05 93.0667H390.473L390.126 96.0388H388.046L387.7 99.011H393.747L393.458 96.0388H400.506L400.275 93.0667H403.164L402.239 84.1499H397.502L397.271 81.1777H403.626L403.048 75.2332H396.231L395.914 72.261ZM434.821 173.317H441.869L442.446 167.372H439.905L440.136 164.4H436.323L436.669 167.372H434.243L434.821 173.317ZM352.345 137.65H349.919V128.733H349.226V125.761H350.728V119.817H354.425L353.847 125.761H354.887L354.541 128.733H354.656L353.732 137.65H355.349L355.003 140.622H352.345V137.65ZM350.15 170.344H350.728L350.15 175.694V170.344ZM352.577 318.956H352.23V314.794L352.577 318.956ZM340.098 321.928H339.059V318.956H349.341L349.688 321.928H348.533L349.226 327.872H340.098V321.928ZM361.704 414.067H346.222V405.15H348.302V393.261H350.15V387.317H349.804V375.428H349.572V363.539H348.648V354.622H349.341V348.678H350.612V336.789H351.537L352.923 348.678H352.692L353.27 354.622H354.194L355.234 363.539H357.313L358.584 375.428H356.505L357.775 387.317H357.891L358.469 393.261H358.7L359.971 405.15H360.78L361.704 414.067ZM275.12 155.483H283.323C282.09 153.105 280.704 151.917 279.164 151.917C277.623 151.917 276.275 153.105 275.12 155.483ZM294.978 181.515L294.929 180.686L294.877 179.855C294.8 178.667 294.684 177.478 294.53 176.289H297.303L296.957 173.317H283.092C283.015 172.128 282.899 171.137 282.745 170.344C282.591 169.156 282.437 168.165 282.283 167.372H256.056C255.979 168.165 255.863 169.156 255.709 170.344C255.632 171.137 255.517 172.128 255.363 173.317H279.279L279.048 176.289H275.351C275.197 177.874 275.081 179.855 275.004 182.233L274.773 188.178H295.455L295.108 184.017C295.064 183.119 295.021 182.285 294.978 181.515ZM281.474 310.039H266.686L267.032 318.956H258.136C258.29 321.333 258.444 323.513 258.598 325.494C258.752 327.08 258.944 328.863 259.176 330.844H265.761L266.223 334.411L266.686 336.789H266.455L267.032 339.761H268.996C269.15 340.157 269.304 340.752 269.458 341.544L269.92 342.733H271.769C273.079 346.3 274.658 348.083 276.506 348.083C278.355 348.083 279.896 346.3 281.128 342.733H277.315L278.239 339.761H278.933L279.626 336.789H276.622L277.084 334.411C277.315 333.222 277.469 332.033 277.546 330.844H278.817C279.279 327.278 279.664 323.315 279.972 318.956H280.781L281.012 315.983C281.166 313.605 281.32 311.624 281.474 310.039ZM81.4302 152.511H77.9639C78.272 152.115 78.5801 151.917 78.8882 151.917H79.8125H80.6216C80.9297 151.917 81.1992 152.115 81.4302 152.511Z" fill="black"/>
</svg>
