<svg width="500" height="500" viewBox="0 0 500 500" fill="none" xmlns="http://www.w3.org/2000/svg">
<path fill-rule="evenodd" clip-rule="evenodd" d="M500 0H0V500H500V0ZM466 129.428C466 117.371 465.757 107.324 465.271 99.2856C465.757 90.7451 466 80.6975 466 69.1428C466 57.0857 465.757 47.0381 465.271 39H450.69C450.205 47.0381 449.961 57.0857 449.961 69.1428C449.961 80.6975 450.205 90.7451 450.69 99.2856C450.205 107.324 449.961 117.371 449.961 129.428C449.961 140.983 450.205 151.031 450.69 159.572C450.205 167.61 449.961 177.657 449.961 189.714C449.961 201.269 450.205 211.317 450.69 219.857C450.205 227.895 449.961 237.943 449.961 250C449.961 261.555 450.205 271.602 450.69 280.143C450.205 288.181 449.961 298.229 449.961 310.286C449.961 321.841 450.205 331.888 450.69 340.428H465.271C465.757 331.888 466 321.841 466 310.286C466 298.229 465.757 288.181 465.271 280.143C465.757 271.602 466 261.555 466 250C466 237.943 465.757 227.895 465.271 219.857C465.757 211.317 466 201.269 466 189.714C466 177.657 465.757 167.61 465.271 159.572C465.757 151.031 466 140.983 466 129.428ZM466 430.857C466 418.8 465.757 408.752 465.271 400.714H450.69C450.205 408.752 449.961 418.8 449.961 430.857C449.961 442.412 450.205 452.459 450.69 461H465.271C465.757 452.459 466 442.412 466 430.857ZM422.188 69.1428C422.188 80.6975 421.945 90.7451 421.459 99.2856C421.945 107.324 422.188 117.371 422.188 129.428C422.188 140.983 421.945 151.031 421.459 159.572H414.169C414.655 167.61 414.898 177.657 414.898 189.714C414.898 201.269 414.655 211.317 414.169 219.857H406.879C407.365 227.895 407.608 237.943 407.608 250C407.608 261.555 407.365 271.602 406.879 280.143H399.589C400.075 288.181 400.318 298.229 400.318 310.286C400.318 321.841 400.075 331.888 399.589 340.428C400.075 348.467 400.318 358.514 400.318 370.572C400.318 382.126 400.075 392.174 399.589 400.714C400.075 408.752 400.318 418.8 400.318 430.857C400.318 442.412 400.075 452.459 399.589 461H385.009C384.523 452.459 384.28 442.412 384.28 430.857C384.28 418.8 384.523 408.752 385.009 400.714C384.523 392.174 384.28 382.126 384.28 370.572C384.28 358.514 384.523 348.467 385.009 340.428C384.523 331.888 384.28 321.841 384.28 310.286C384.28 298.229 384.523 288.181 385.009 280.143H377.719C377.232 271.602 376.99 261.555 376.99 250C376.99 237.943 377.232 227.895 377.719 219.857H370.429C369.942 211.317 369.7 201.269 369.7 189.714C369.7 177.657 369.942 167.61 370.429 159.572H363.139C362.652 151.031 362.41 140.983 362.41 129.428C362.41 117.371 362.652 107.324 363.139 99.2856C362.652 90.7451 362.41 80.6975 362.41 69.1428C362.41 57.0857 362.652 47.0381 363.139 39H377.719C378.205 47.0381 378.448 57.0857 378.448 69.1428C378.448 80.6975 378.205 90.7451 377.719 99.2856C378.205 107.324 378.448 117.371 378.448 129.428C378.448 140.983 378.205 151.031 377.719 159.572H385.009C385.495 167.61 385.738 177.657 385.738 189.714C385.738 201.269 385.495 211.317 385.009 219.857H399.589C399.103 211.317 398.86 201.269 398.86 189.714C398.86 177.657 399.103 167.61 399.589 159.572H406.879C406.393 151.031 406.15 140.983 406.15 129.428C406.15 117.371 406.393 107.324 406.879 99.2856C406.393 90.7451 406.15 80.6975 406.15 69.1428C406.15 57.0857 406.393 47.0381 406.879 39H421.459C421.945 47.0381 422.188 57.0857 422.188 69.1428ZM356.506 430.857C356.506 418.8 356.263 408.752 355.777 400.714H350.31C350.795 392.174 351.039 382.126 351.039 370.572C351.039 358.514 350.795 348.467 350.31 340.428H339.375C339.86 331.888 340.104 321.841 340.104 310.286C340.104 298.229 339.86 288.181 339.375 280.143H330.262C330.748 271.602 330.991 261.555 330.991 250C330.991 237.943 330.748 227.895 330.262 219.857H339.375C339.86 211.317 340.104 201.269 340.104 189.714C340.104 177.657 339.86 167.61 339.375 159.572H350.31C350.795 151.031 351.039 140.983 351.039 129.428C351.039 117.371 350.795 107.324 350.31 99.2856H355.777C356.263 90.7451 356.506 80.6975 356.506 69.1428C356.506 57.0857 356.263 47.0381 355.777 39H341.197C340.711 47.0381 340.468 57.0857 340.468 69.1428C340.468 80.6975 340.711 90.7451 341.197 99.2856H335.729C335.244 107.324 335 117.371 335 129.428C335 140.983 335.244 151.031 335.729 159.572H324.794C324.309 167.61 324.065 177.657 324.065 189.714C324.065 201.269 324.309 211.317 324.794 219.857H312.037C312.523 211.317 312.766 201.269 312.766 189.714C312.766 177.657 312.523 167.61 312.037 159.572C312.523 151.031 312.766 140.983 312.766 129.428C312.766 117.371 312.523 107.324 312.037 99.2856C312.523 90.7451 312.766 80.6975 312.766 69.1428C312.766 57.0857 312.523 47.0381 312.037 39H297.457C296.971 47.0381 296.728 57.0857 296.728 69.1428C296.728 80.6975 296.971 90.7451 297.457 99.2856C296.971 107.324 296.728 117.371 296.728 129.428C296.728 140.983 296.971 151.031 297.457 159.572C296.971 167.61 296.728 177.657 296.728 189.714C296.728 201.269 296.971 211.317 297.457 219.857C296.971 227.895 296.728 237.943 296.728 250C296.728 261.555 296.971 271.602 297.457 280.143C296.971 288.181 296.728 298.229 296.728 310.286C296.728 321.841 296.971 331.888 297.457 340.428C296.971 348.467 296.728 358.514 296.728 370.572C296.728 382.126 296.971 392.174 297.457 400.714C296.971 408.752 296.728 418.8 296.728 430.857C296.728 442.412 296.971 452.459 297.457 461H312.037C312.523 452.459 312.766 442.412 312.766 430.857C312.766 418.8 312.523 408.752 312.037 400.714C312.523 392.174 312.766 382.126 312.766 370.572C312.766 358.514 312.523 348.467 312.037 340.428C312.523 331.888 312.766 321.841 312.766 310.286C312.766 298.229 312.523 288.181 312.037 280.143H324.794C324.309 288.181 324.065 298.229 324.065 310.286C324.065 321.841 324.309 331.888 324.794 340.428H335.729C335.244 348.467 335 358.514 335 370.572C335 382.126 335.244 392.174 335.729 400.714H341.197C340.711 408.752 340.468 418.8 340.468 430.857C340.468 442.412 340.711 452.459 341.197 461H355.777C356.263 452.459 356.506 442.412 356.506 430.857ZM290.095 340.428C290.582 348.467 290.824 358.514 290.824 370.572C290.824 382.126 290.582 392.174 290.095 400.714H282.805C283.291 408.752 283.534 418.8 283.534 430.857C283.534 442.412 283.291 452.459 282.805 461H246.355C245.869 452.459 245.626 442.412 245.626 430.857C245.626 418.8 245.869 408.752 246.355 400.714H239.065C238.579 392.174 238.336 382.126 238.336 370.572C238.336 358.514 238.579 348.467 239.065 340.428H231.775C231.289 331.888 231.046 321.841 231.046 310.286C231.046 298.229 231.289 288.181 231.775 280.143C231.289 271.602 231.046 261.555 231.046 250C231.046 237.943 231.289 227.895 231.775 219.857C231.289 211.317 231.046 201.269 231.046 189.714C231.046 177.657 231.289 167.61 231.775 159.572H239.065C238.579 151.031 238.336 140.983 238.336 129.428C238.336 117.371 238.579 107.324 239.065 99.2856H246.355C245.869 90.7451 245.626 80.6975 245.626 69.1428C245.626 57.0857 245.869 47.0381 246.355 39H282.805C283.291 47.0381 283.534 57.0857 283.534 69.1428C283.534 80.6975 283.291 90.7451 282.805 99.2856H290.095C290.582 107.324 290.824 117.371 290.824 129.428C290.824 140.983 290.582 151.031 290.095 159.572H275.515C275.029 151.031 274.786 140.983 274.786 129.428C274.786 117.371 275.029 107.324 275.515 99.2856H253.645C254.131 107.324 254.374 117.371 254.374 129.428C254.374 140.983 254.131 151.031 253.645 159.572H246.355C246.841 167.61 247.084 177.657 247.084 189.714C247.084 201.269 246.841 211.317 246.355 219.857C246.841 227.895 247.084 237.943 247.084 250C247.084 261.555 246.841 271.602 246.355 280.143C246.841 288.181 247.084 298.229 247.084 310.286C247.084 321.841 246.841 331.888 246.355 340.428H253.645C254.131 348.467 254.374 358.514 254.374 370.572C254.374 382.126 254.131 392.174 253.645 400.714H275.515C275.029 392.174 274.786 382.126 274.786 370.572C274.786 358.514 275.029 348.467 275.515 340.428H290.095ZM214.208 430.857C214.208 418.8 213.964 408.752 213.479 400.714H202.543C203.029 392.174 203.272 382.126 203.272 370.572C203.272 358.514 203.029 348.467 202.543 340.428C203.029 331.888 203.272 321.841 203.272 310.286C203.272 298.229 203.029 288.181 202.543 280.143C203.029 271.602 203.272 261.555 203.272 250C203.272 237.943 203.029 227.895 202.543 219.857C203.029 211.317 203.272 201.269 203.272 189.714C203.272 177.657 203.029 167.61 202.543 159.572C203.029 151.031 203.272 140.983 203.272 129.428C203.272 117.371 203.029 107.324 202.543 99.2856H213.479C213.964 90.7451 214.208 80.6975 214.208 69.1428C214.208 57.0857 213.964 47.0381 213.479 39H177.028C176.542 47.0381 176.299 57.0857 176.299 69.1428C176.299 80.6975 176.542 90.7451 177.028 99.2856H187.963C187.477 107.324 187.234 117.371 187.234 129.428C187.234 140.983 187.477 151.031 187.963 159.572C187.477 167.61 187.234 177.657 187.234 189.714C187.234 201.269 187.477 211.317 187.963 219.857C187.477 227.895 187.234 237.943 187.234 250C187.234 261.555 187.477 271.602 187.963 280.143C187.477 288.181 187.234 298.229 187.234 310.286C187.234 321.841 187.477 331.888 187.963 340.428C187.477 348.467 187.234 358.514 187.234 370.572C187.234 382.126 187.477 392.174 187.963 400.714H177.028C176.542 408.752 176.299 418.8 176.299 430.857C176.299 442.412 176.542 452.459 177.028 461H213.479C213.964 452.459 214.208 442.412 214.208 430.857ZM159.46 69.1428C159.46 80.6975 159.218 90.7451 158.731 99.2856H136.861C137.347 107.324 137.59 117.371 137.59 129.428C137.59 140.983 137.347 151.031 136.861 159.572C137.347 167.61 137.59 177.657 137.59 189.714C137.59 201.269 137.347 211.317 136.861 219.857C137.347 227.895 137.59 237.943 137.59 250C137.59 261.555 137.347 271.602 136.861 280.143C137.347 288.181 137.59 298.229 137.59 310.286C137.59 321.841 137.347 331.888 136.861 340.428C137.347 348.467 137.59 358.514 137.59 370.572C137.59 382.126 137.347 392.174 136.861 400.714C137.347 408.752 137.59 418.8 137.59 430.857C137.59 442.412 137.347 452.459 136.861 461H122.281C121.795 452.459 121.552 442.412 121.552 430.857C121.552 418.8 121.795 408.752 122.281 400.714C121.795 392.174 121.552 382.126 121.552 370.572C121.552 358.514 121.795 348.467 122.281 340.428C121.795 331.888 121.552 321.841 121.552 310.286C121.552 298.229 121.795 288.181 122.281 280.143C121.795 271.602 121.552 261.555 121.552 250C121.552 237.943 121.795 227.895 122.281 219.857C121.795 211.317 121.552 201.269 121.552 189.714C121.552 177.657 121.795 167.61 122.281 159.572C121.795 151.031 121.552 140.983 121.552 129.428C121.552 117.371 121.795 107.324 122.281 99.2856H100.411C99.9248 90.7451 99.6821 80.6975 99.6821 69.1428C99.6821 57.0857 99.9248 47.0381 100.411 39H158.731C159.218 47.0381 159.46 57.0857 159.46 69.1428ZM93.7788 310.286C93.7788 298.229 93.5356 288.181 93.0498 280.143H85.7598C86.2456 271.602 86.4888 261.555 86.4888 250C86.4888 237.943 86.2456 227.895 85.7598 219.857H49.3091C49.7954 211.317 50.0381 201.269 50.0381 189.714C50.0381 177.657 49.7954 167.61 49.3091 159.572C49.7954 151.031 50.0381 140.983 50.0381 129.428C50.0381 117.371 49.7954 107.324 49.3091 99.2856H78.4692C77.9834 107.324 77.7402 117.371 77.7402 129.428C77.7402 140.983 77.9834 151.031 78.4692 159.572H93.0498C93.5356 151.031 93.7788 140.983 93.7788 129.428C93.7788 117.371 93.5356 107.324 93.0498 99.2856H85.7598C86.2456 90.7451 86.4888 80.6975 86.4888 69.1428C86.4888 57.0857 86.2456 47.0381 85.7598 39H42.019C41.5332 47.0381 41.29 57.0857 41.29 69.1428C41.29 80.6975 41.5332 90.7451 42.019 99.2856H34.729C34.2432 107.324 34 117.371 34 129.428C34 140.983 34.2432 151.031 34.729 159.572C34.2432 167.61 34 177.657 34 189.714C34 201.269 34.2432 211.317 34.729 219.857H42.019C41.5332 227.895 41.29 237.943 41.29 250C41.29 261.555 41.5332 271.602 42.019 280.143H78.4692C77.9834 288.181 77.7402 298.229 77.7402 310.286C77.7402 321.841 77.9834 331.888 78.4692 340.428C77.9834 348.467 77.7402 358.514 77.7402 370.572C77.7402 382.126 77.9834 392.174 78.4692 400.714H49.3091C49.7954 392.174 50.0381 382.126 50.0381 370.572C50.0381 358.514 49.7954 348.467 49.3091 340.428H34.729C34.2432 348.467 34 358.514 34 370.572C34 382.126 34.2432 392.174 34.729 400.714H42.019C41.5332 408.752 41.29 418.8 41.29 430.857C41.29 442.412 41.5332 452.459 42.019 461H85.7598C86.2456 452.459 86.4888 442.412 86.4888 430.857C86.4888 418.8 86.2456 408.752 85.7598 400.714H93.0498C93.5356 392.174 93.7788 382.126 93.7788 370.572C93.7788 358.514 93.5356 348.467 93.0498 340.428C93.5356 331.888 93.7788 321.841 93.7788 310.286Z" fill="black"/>
</svg>
