<svg width="500" height="500" viewBox="0 0 500 500" fill="none" xmlns="http://www.w3.org/2000/svg">
<path fill-rule="evenodd" clip-rule="evenodd" d="M0 0H500V500H0V0ZM462.047 36H469V64.5334V93.0667V121.6V150.133V178.667V207.2H462.047V235.733H455.094V264.267H448.142V292.8H441.189V321.333V349.867V378.4V406.933V435.467V464H434.236H427.283H420.331V435.467V406.933V378.4V349.867V321.333V292.8H413.377V264.267H406.425V235.733H399.472V207.2H392.519V178.667V150.133V121.6V93.0667V64.5334V36H399.472H406.425H413.377V64.5334V93.0667V121.6V150.133V178.667H420.331V207.2H427.283V235.733H434.236V207.2H441.189V178.667H448.142V150.133V121.6V93.0667V64.5334V36H455.094H462.047ZM323.025 36H316.072V64.5334V93.0667V121.6V150.133V178.667V207.2V235.733V264.267V292.8V321.333V349.867V378.4V406.933V435.467V464H323.025H329.978H336.931V435.467V406.933V378.4V349.867V321.333V292.8H343.883H350.836V321.333H357.789V349.867V378.4V406.933V435.467V464H364.742H371.694H378.647V435.467V406.933V378.4V349.867V321.333V292.8H371.694V264.267H364.742V235.733H371.694V207.2H378.647V178.667V150.133V121.6V93.0667V64.5334V36H371.694H364.742H357.789V64.5334V93.0667V121.6V150.133V178.667H350.836V207.2H343.883H336.931V178.667V150.133V121.6V93.0667V64.5334V36H329.978H323.025ZM246.564 36H253.517H260.47H267.423H274.375H281.329H288.281V64.5334H295.234V93.0667H302.187V121.6V150.133V178.667H295.234H288.281H281.329V150.133H274.375V121.6H267.423H260.47V150.133H253.517V178.667V207.2V235.733V264.267V292.8V321.333V349.867H260.47V378.4H267.423H274.375V349.867H281.329V321.333H288.281H295.234H302.187V349.867V378.4V406.933H295.234V435.467H288.281V464H281.329H274.375H267.423H260.47H253.517H246.564V435.467H239.611V406.933H232.659V378.4V349.867V321.333V292.8V264.267V235.733V207.2V178.667V150.133V121.6V93.0667H239.611V64.5334H246.564V36ZM197.827 464H204.78H211.732H218.685V435.467V406.933V378.4V349.867V321.333V292.8V264.267V235.733V207.2V178.667V150.133V121.6V93.0667V64.5334V36H211.732H204.78H197.827V64.5334V93.0667V121.6V150.133V178.667V207.2V235.733V264.267V292.8V321.333V349.867V378.4V406.933V435.467V464ZM149.191 464H142.238V435.467V406.933V378.4V349.867V321.333V292.8V264.267V235.733V207.2V178.667V150.133V121.6H135.285H128.333H121.38V93.0667V64.5334V36H128.333H135.285H142.238H149.191H156.144H163.097H170.049H177.002H183.955V64.5334V93.0667V121.6H177.002H170.049H163.097V150.133V178.667V207.2V235.733V264.267V292.8V321.333V349.867V378.4V406.933V435.467V464H156.144H149.191ZM93.5752 36H86.6226H79.6699H72.7168H65.7642H58.811H51.8584H44.9058V64.5334H37.9526V93.0667H31V121.6V150.133V178.667V207.2V235.733H37.9526V264.267H44.9058V292.8H51.8584H58.811H65.7642H72.7168H79.6699V321.333H86.6226V349.867H79.6699V378.4H72.7168H65.7642H58.811V349.867H51.8584V321.333H44.9058H37.9526H31V349.867V378.4V406.933H37.9526V435.467H44.9058V464H51.8584H58.811H65.7642H72.7168H79.6699H86.6226H93.5752V435.467H100.528V406.933H107.481V378.4V349.867V321.333V292.8V264.267H100.528V235.733H93.5752V207.2H86.6226H79.6699H72.7168H65.7642H58.811V178.667H51.8584V150.133H58.811V121.6H65.7642H72.7168H79.6699V150.133H86.6226V178.667H93.5752H100.528H107.481V150.133V121.6V93.0667H100.528V64.5334H93.5752V36Z" fill="black"/>
</svg>
